<svg width="161" height="48" viewBox="0 0 161 48" fill="none" xmlns="http://www.w3.org/2000/svg">
<g id="Frame 17">
<g id="Group">
<path id="Vector" d="M33.9072 41.1065C33.9072 44.9231 32.0275 47.9884 32.0275 47.9884L32.0229 47.9999L13.4146 29.4056C16.895 27.359 21.2472 26.875 25.2973 28.4699C30.6436 30.574 33.9072 35.6905 33.9072 41.1065Z" fill="url(#paint0_linear_271_1043)"/>
<path id="Vector_2" d="M21.6436 20.0737C19.9691 24.319 16.3965 27.2483 12.2818 28.2739L0 16.0013H0.00230643L21.1224 8.96509C22.813 12.3023 23.122 16.3194 21.6436 20.0737Z" fill="url(#paint1_linear_271_1043)"/>
<path id="Vector_3" d="M48.0359 0L43.1371 14.6856C39.4952 17.389 34.5779 18.2094 30.0434 16.4233C26.3231 14.9598 23.6131 12.0375 22.3076 8.57118L48.0359 0Z" fill="url(#paint2_linear_271_1043)"/>
<path id="Vector_4" d="M42.4339 16.7898L35.4062 37.8594C32.7261 34.2226 31.9188 29.332 33.6971 24.8194C35.2862 20.7908 38.5844 17.9468 42.4339 16.7898Z" fill="url(#paint3_linear_271_1043)"/>
</g>
<g id="Group_2">
<path id="Vector_5" d="M70.4251 9.84448H67.1984L54.0361 39.4037H58.0618L68.7485 15.0912L79.564 39.4037H83.6303L70.4251 9.84448Z" fill="#FEFFFF"/>
<path id="Vector_6" d="M102.24 39.4037L90.8809 28.9955V39.4037H87.2749V8.1792H90.8809V26.705L100.017 18.5874H104.797L94.4844 27.7875L107.101 39.4037H102.238H102.24Z" fill="#FEFFFF"/>
<path id="Vector_7" d="M117.161 39.8205C114.254 39.8205 111.817 38.7664 109.847 36.6559C107.877 34.5477 106.892 31.9943 106.892 28.9955C106.892 25.9967 107.877 23.4455 109.847 21.335C111.817 19.2269 114.254 18.1704 117.161 18.1704C118.697 18.1704 120.131 18.5115 121.457 19.1913C122.783 19.8712 123.811 20.7381 124.538 21.7922V18.5873H128.141V39.4036H124.538V36.1987C123.811 37.2528 122.785 38.1221 121.457 38.7996C120.128 39.4794 118.697 39.8205 117.161 39.8205ZM117.705 36.5304C119.773 36.5304 121.478 35.8103 122.818 34.3653C124.159 32.9228 124.831 31.132 124.831 28.9955C124.831 26.8589 124.161 25.0681 122.818 23.6256C121.478 22.183 119.773 21.4606 117.705 21.4606C115.637 21.4606 113.892 22.183 112.549 23.6256C111.209 25.0681 110.536 26.8589 110.536 28.9955C110.536 31.132 111.206 32.9228 112.549 34.3653C113.889 35.8079 115.609 36.5304 117.705 36.5304Z" fill="#FEFFFF"/>
<path id="Vector_8" d="M141.28 39.8205C138.373 39.8205 135.936 38.7664 133.966 36.6559C131.996 34.5477 131.011 31.9943 131.011 28.9955C131.011 25.9967 131.996 23.4455 133.966 21.335C135.936 19.2269 138.373 18.1704 141.28 18.1704C142.816 18.1704 144.249 18.5115 145.575 19.1913C146.901 19.8712 147.929 20.7381 148.657 21.7922V18.5873H152.26V39.4036H148.657V36.1987C147.929 37.2528 146.904 38.1221 145.575 38.7996C144.247 39.4794 142.816 39.8205 141.28 39.8205ZM141.824 36.5304C143.892 36.5304 145.597 35.8103 146.937 34.3653C148.277 32.9228 148.95 31.132 148.95 28.9955C148.95 26.8589 148.28 25.0681 146.937 23.6256C145.597 22.183 143.892 21.4606 141.824 21.4606C139.756 21.4606 138.01 22.183 136.668 23.6256C135.327 25.0681 134.655 26.8589 134.655 28.9955C134.655 31.132 135.325 32.9228 136.668 34.3653C138.008 35.8079 139.728 36.5304 141.824 36.5304Z" fill="#FEFFFF"/>
<path id="Vector_9" d="M157.247 39.4037V8.1792H160.853V39.4037H157.247Z" fill="#FEFFFF"/>
</g>
</g>
<defs>
<linearGradient id="paint0_linear_271_1043" x1="36.8018" y1="-3.91349" x2="21.22" y2="43.8192" gradientUnits="userSpaceOnUse">
<stop stop-color="#2ACFEA"/>
<stop offset="1" stop-color="#C929DC"/>
</linearGradient>
<linearGradient id="paint1_linear_271_1043" x1="19.8238" y1="-9.45639" x2="4.2397" y2="38.2763" gradientUnits="userSpaceOnUse">
<stop stop-color="#2ACFEA"/>
<stop offset="1" stop-color="#C929DC"/>
</linearGradient>
<linearGradient id="paint2_linear_271_1043" x1="37.7515" y1="-3.60225" x2="22.1674" y2="44.1304" gradientUnits="userSpaceOnUse">
<stop stop-color="#2ACFEA"/>
<stop offset="1" stop-color="#C929DC"/>
</linearGradient>
<linearGradient id="paint3_linear_271_1043" x1="45.2339" y1="-1.15922" x2="29.6498" y2="46.5735" gradientUnits="userSpaceOnUse">
<stop stop-color="#2ACFEA"/>
<stop offset="1" stop-color="#C929DC"/>
</linearGradient>
</defs>
</svg>
